
<svg width="100%" viewBox="0 0 680 420" role="img" xmlns="http://www.w3.org/2000/svg">
  <title>iSTILL 2000L cooling circuit — technical drawing</title>
  <desc>Precision engineering drawing of the 2000L pot still cooling circuit. Cold supply flows from reservoir to condenser; warm return flows back.</desc>
  <defs>
    <marker id="tg" viewBox="0 0 10 10" refX="8" refY="5" markerWidth="5" markerHeight="5" orient="auto-start-reverse">
      <path d="M2 1L8 5L2 9" fill="none" stroke="#1D9E75" stroke-width="1.5" stroke-linecap="round" stroke-linejoin="round"/>
    </marker>
    <marker id="tr" viewBox="0 0 10 10" refX="8" refY="5" markerWidth="5" markerHeight="5" orient="auto-start-reverse">
      <path d="M2 1L8 5L2 9" fill="none" stroke="#C03820" stroke-width="1.5" stroke-linecap="round" stroke-linejoin="round"/>
    </marker>
    <pattern id="th" patternUnits="userSpaceOnUse" width="5" height="5" patternTransform="rotate(45)">
      <line x1="0" y1="0" x2="0" y2="5" stroke="#888780" stroke-width="0.4"/>
    </pattern>
    <pattern id="tw" patternUnits="userSpaceOnUse" width="8" height="8" patternTransform="rotate(30)">
      <line x1="0" y1="0" x2="0" y2="8" stroke="#B5D4F4" stroke-width="0.6"/>
    </pattern>
  </defs>
  <rect x="0" y="0" width="680" height="420" fill="#faf9f7"/>
  <rect x="0" y="378" width="680" height="42" fill="#f0ede8"/>
  <line x1="0" y1="378" x2="680" y2="378" stroke="#2C2C2A" stroke-width="0.8"/>
  <line x1="227" y1="378" x2="227" y2="420" stroke="#B4B2A9" stroke-width="0.5"/>
  <line x1="454" y1="378" x2="454" y2="420" stroke="#B4B2A9" stroke-width="0.5"/>
  <text x="113" y="390" text-anchor="middle" dominant-baseline="central" fill="#888780" font-size="8" font-family="monospace" letter-spacing="0.5">SITE</text>
  <text x="113" y="405" text-anchor="middle" dominant-baseline="central" fill="#2C2C2A" font-size="10" font-family="monospace">Seekers Spirits · Phnom Penh</text>
  <text x="340" y="390" text-anchor="middle" dominant-baseline="central" fill="#888780" font-size="8" font-family="monospace" letter-spacing="0.5">TITLE</text>
  <text x="340" y="405" text-anchor="middle" dominant-baseline="central" fill="#2C2C2A" font-size="10" font-family="monospace" letter-spacing="0.3">Cooling circuit schematic</text>
  <text x="567" y="390" text-anchor="middle" dominant-baseline="central" fill="#888780" font-size="8" font-family="monospace" letter-spacing="0.5">ISSUE</text>
  <text x="567" y="405" text-anchor="middle" dominant-baseline="central" fill="#2C2C2A" font-size="10" font-family="monospace">Initial issue · Jun 2023</text>
  <rect x="400" y="50" width="240" height="110" rx="2" fill="#ece9e3" stroke="#2C2C2A" stroke-width="1"/>
  <rect x="405" y="55" width="230" height="100" fill="none" stroke="#888780" stroke-width="0.3"/>
  <rect x="406" y="72" width="228" height="78" fill="url(#tw)" opacity="0.6"/>
  <line x1="406" y1="72" x2="634" y2="72" stroke="#378ADD" stroke-width="0.7" stroke-dasharray="5 3"/>
  <line x1="520" y1="45" x2="520" y2="53" stroke="#B4B2A9" stroke-width="0.4" stroke-dasharray="3 2"/>
  <line x1="520" y1="157" x2="520" y2="165" stroke="#B4B2A9" stroke-width="0.4" stroke-dasharray="3 2"/>
  <line x1="396" y1="105" x2="404" y2="105" stroke="#B4B2A9" stroke-width="0.4" stroke-dasharray="3 2"/>
  <line x1="636" y1="105" x2="644" y2="105" stroke="#B4B2A9" stroke-width="0.4" stroke-dasharray="3 2"/>
  <text x="520" y="100" text-anchor="middle" dominant-baseline="central" fill="#2C2C2A" font-size="11" font-family="monospace" letter-spacing="0.5">WATER RESERVOIR</text>
  <text x="520" y="116" text-anchor="middle" dominant-baseline="central" fill="#5F5E5A" font-size="9" font-family="monospace">300L design capacity</text>
  <rect x="442" y="128" width="156" height="17" rx="1" fill="#FCEBEB" stroke="#E24B4A" stroke-width="0.4"/>
  <text x="520" y="137" text-anchor="middle" dominant-baseline="central" fill="#791F1F" font-size="8.5" font-family="monospace">UNDERSIZED FOR 2000L LOAD</text>
  <rect x="383" y="58" width="18" height="7" fill="#ece9e3" stroke="#2C2C2A" stroke-width="0.8"/>
  <rect x="383" y="103" width="18" height="7" fill="#ece9e3" stroke="#2C2C2A" stroke-width="0.8"/>
  <rect x="62" y="278" width="10" height="54" rx="1" fill="#D3D1C7" stroke="#2C2C2A" stroke-width="0.7"/>
  <rect x="148" y="278" width="10" height="54" rx="1" fill="#D3D1C7" stroke="#2C2C2A" stroke-width="0.7"/>
  <rect x="56" y="326" width="24" height="6" rx="1" fill="#B4B2A9" stroke="#2C2C2A" stroke-width="0.6"/>
  <rect x="142" y="326" width="24" height="6" rx="1" fill="#B4B2A9" stroke="#2C2C2A" stroke-width="0.6"/>
  <rect x="60" y="274" width="100" height="7" rx="1" fill="#B4B2A9" stroke="#2C2C2A" stroke-width="0.6"/>
  <polygon points="54,276 166,276 158,190 62,190" fill="#D3D1C7" stroke="#2C2C2A" stroke-width="1"/>
  <polygon points="62,271 158,271 151,197 69,197" fill="none" stroke="#888780" stroke-width="0.3"/>
  <polygon points="54,276 62,276 69,197 62,190" fill="url(#th)" opacity="0.7"/>
  <polygon points="158,276 166,276 158,190 151,197" fill="url(#th)" opacity="0.7"/>
  <rect x="64" y="262" width="92" height="10" rx="1" fill="#888780" stroke="#2C2C2A" stroke-width="0.5"/>
  <line x1="74" y1="262" x2="74" y2="272" stroke="#2C2C2A" stroke-width="0.4"/>
  <line x1="84" y1="262" x2="84" y2="272" stroke="#2C2C2A" stroke-width="0.4"/>
  <line x1="94" y1="262" x2="94" y2="272" stroke="#2C2C2A" stroke-width="0.4"/>
  <line x1="104" y1="262" x2="104" y2="272" stroke="#2C2C2A" stroke-width="0.4"/>
  <line x1="114" y1="262" x2="114" y2="272" stroke="#2C2C2A" stroke-width="0.4"/>
  <line x1="124" y1="262" x2="124" y2="272" stroke="#2C2C2A" stroke-width="0.4"/>
  <line x1="134" y1="262" x2="134" y2="272" stroke="#2C2C2A" stroke-width="0.4"/>
  <line x1="144" y1="262" x2="144" y2="272" stroke="#2C2C2A" stroke-width="0.4"/>
  <rect x="82" y="222" width="54" height="38" rx="2" fill="#1A1A1A" stroke="#2C2C2A" stroke-width="0.7"/>
  <rect x="85" y="225" width="48" height="32" rx="1" fill="#042C53"/>
  <line x1="87" y1="231" x2="131" y2="231" stroke="#378ADD" stroke-width="0.5" opacity="0.7"/>
  <line x1="87" y1="237" x2="131" y2="237" stroke="#378ADD" stroke-width="0.5" opacity="0.4"/>
  <line x1="87" y1="243" x2="131" y2="243" stroke="#378ADD" stroke-width="0.5" opacity="0.7"/>
  <line x1="87" y1="249" x2="131" y2="249" stroke="#378ADD" stroke-width="0.5" opacity="0.3"/>
  <circle cx="92" cy="254" r="2" fill="#1D9E75"/>
  <circle cx="100" cy="254" r="2" fill="#EF9F27"/>
  <circle cx="108" cy="254" r="2" fill="#E24B4A"/>
  <rect x="96" y="183" width="28" height="9" rx="1" fill="#B4B2A9" stroke="#2C2C2A" stroke-width="0.6"/>
  <rect x="96" y="112" width="28" height="73" rx="1" fill="#D3D1C7" stroke="#2C2C2A" stroke-width="0.8"/>
  <rect x="100" y="115" width="20" height="69" fill="none" stroke="#888780" stroke-width="0.3"/>
  <line x1="96" y1="132" x2="124" y2="132" stroke="#888780" stroke-width="0.3" stroke-dasharray="2 2"/>
  <line x1="96" y1="152" x2="124" y2="152" stroke="#888780" stroke-width="0.3" stroke-dasharray="2 2"/>
  <line x1="96" y1="172" x2="124" y2="172" stroke="#888780" stroke-width="0.3" stroke-dasharray="2 2"/>
  <rect x="90" y="127" width="40" height="7" rx="1" fill="#B4B2A9" stroke="#2C2C2A" stroke-width="0.6"/>
  <circle cx="93" cy="131" r="1.2" fill="#2C2C2A"/>
  <circle cx="127" cy="131" r="1.2" fill="#2C2C2A"/>
  <rect x="90" y="147" width="40" height="7" rx="1" fill="#B4B2A9" stroke="#2C2C2A" stroke-width="0.6"/>
  <circle cx="93" cy="151" r="1.2" fill="#2C2C2A"/>
  <circle cx="127" cy="151" r="1.2" fill="#2C2C2A"/>
  <rect x="90" y="167" width="40" height="7" rx="1" fill="#B4B2A9" stroke="#2C2C2A" stroke-width="0.6"/>
  <circle cx="93" cy="171" r="1.2" fill="#2C2C2A"/>
  <circle cx="127" cy="171" r="1.2" fill="#2C2C2A"/>
  <rect x="84" y="58" width="56" height="56" rx="2" fill="#D3D1C7" stroke="#2C2C2A" stroke-width="0.9"/>
  <rect x="88" y="62" width="48" height="48" fill="none" stroke="#888780" stroke-width="0.3"/>
  <line x1="90" y1="68" x2="134" y2="68" stroke="#2C2C2A" stroke-width="0.5"/>
  <line x1="90" y1="74" x2="134" y2="74" stroke="#2C2C2A" stroke-width="0.5"/>
  <line x1="90" y1="80" x2="134" y2="80" stroke="#2C2C2A" stroke-width="0.5"/>
  <line x1="90" y1="86" x2="134" y2="86" stroke="#2C2C2A" stroke-width="0.5"/>
  <line x1="90" y1="92" x2="134" y2="92" stroke="#2C2C2A" stroke-width="0.5"/>
  <line x1="90" y1="98" x2="134" y2="98" stroke="#2C2C2A" stroke-width="0.5"/>
  <line x1="90" y1="104" x2="134" y2="104" stroke="#2C2C2A" stroke-width="0.5"/>
  <rect x="102" y="44" width="16" height="16" rx="1" fill="#D3D1C7" stroke="#2C2C2A" stroke-width="0.7"/>
  <rect x="140" y="63" width="16" height="7" fill="#D3D1C7" stroke="#2C2C2A" stroke-width="0.7"/>
  <rect x="140" y="104" width="16" height="7" fill="#D3D1C7" stroke="#2C2C2A" stroke-width="0.7"/>
  <line x1="156" y1="66" x2="156" y2="61" stroke="#C03820" stroke-width="2"/>
  <line x1="156" y1="61" x2="383" y2="61" stroke="#C03820" stroke-width="2" marker-end="url(#tr)"/>
  <circle cx="383" cy="61" r="3" fill="#C03820"/>
  <circle cx="156" cy="66" r="3" fill="#C03820"/>
  <line x1="383" y1="106" x2="166" y2="106" stroke="#1D9E75" stroke-width="2" marker-end="url(#tg)"/>
  <line x1="156" y1="106" x2="156" y2="108" stroke="#1D9E75" stroke-width="2"/>
  <circle cx="383" cy="106" r="3" fill="#1D9E75"/>
  <circle cx="156" cy="108" r="3" fill="#1D9E75"/>
  <line x1="140" y1="83" x2="230" y2="83" stroke="#888780" stroke-width="0.35" stroke-dasharray="3 2"/>
  <circle cx="140" cy="83" r="1.5" fill="#888780"/>
  <text x="234" y="81" dominant-baseline="central" fill="#444441" font-size="9" font-family="monospace">01  condenser head</text>
  <line x1="130" y1="150" x2="230" y2="150" stroke="#888780" stroke-width="0.35" stroke-dasharray="3 2"/>
  <circle cx="130" cy="150" r="1.5" fill="#888780"/>
  <text x="234" y="148" dominant-baseline="central" fill="#444441" font-size="9" font-family="monospace">02  rectification column</text>
  <line x1="166" y1="232" x2="230" y2="232" stroke="#888780" stroke-width="0.35" stroke-dasharray="3 2"/>
  <circle cx="166" cy="232" r="1.5" fill="#888780"/>
  <text x="234" y="230" dominant-baseline="central" fill="#444441" font-size="9" font-family="monospace">03  2000L pot / boiler</text>
  <line x1="54" y1="298" x2="230" y2="298" stroke="#888780" stroke-width="0.35" stroke-dasharray="3 2"/>
  <circle cx="54" cy="298" r="1.5" fill="#888780"/>
  <text x="234" y="296" dominant-baseline="central" fill="#444441" font-size="9" font-family="monospace">04  stainless frame / legs</text>
  <text x="110" y="348" text-anchor="middle" dominant-baseline="central" fill="#2C2C2A" font-size="10" font-family="monospace" letter-spacing="0.5">2000L STILL</text>
  <line x1="54" y1="358" x2="166" y2="358" stroke="#2C2C2A" stroke-width="0.5"/>
  <line x1="260" y1="330" x2="230" y2="330" stroke="#1D9E75" stroke-width="2" marker-end="url(#tg)"/>
  <text x="266" y="330" dominant-baseline="central" fill="#5F5E5A" font-size="9" font-family="monospace">Cold supply (reservoir to condenser)</text>
  <line x1="230" y1="346" x2="260" y2="346" stroke="#C03820" stroke-width="2" marker-end="url(#tr)"/>
  <text x="266" y="346" dominant-baseline="central" fill="#5F5E5A" font-size="9" font-family="monospace">Warm return (condenser to reservoir)</text>
</svg>
SVGEOF
echo "SVG ready"
Output

<svg width="100%" viewBox="0 0 680 420" role="img" xmlns="http://www.w3.org/2000/svg">
  <title>iSTILL 2000L cooling circuit — technical drawing</title>
  <desc>Precision engineering drawing of the 2000L pot still cooling circuit. Cold supply flows from reservoir to condenser; warm return flows back.</desc>
  <defs>
    <marker id="tg" viewBox="0 0 10 10" refX="8" refY="5" markerWidth="5" markerHeight="5" orient="auto-start-reverse">
      <path d="M2 1L8 5L2 9" fill="none" stroke="#1D9E75" stroke-width="1.5" stroke-linecap="round" stroke-linejoin="round"/>
    </marker>
    <marker id="tr" viewBox="0 0 10 10" refX="8" refY="5" markerWidth="5" markerHeight="5" orient="auto-start-reverse">
      <path d="M2 1L8 5L2 9" fill="none" stroke="#C03820" stroke-width="1.5" stroke-linecap="round" stroke-linejoin="round"/>
    </marker>
    <pattern id="th" patternUnits="userSpaceOnUse" width="5" height="5" patternTransform="rotate(45)">
      <line x1="0" y1="0" x2="0" y2="5" stroke="#888780" stroke-width="0.4"/>
    </pattern>
    <pattern id="tw" patternUnits="userSpaceOnUse" width="8" height="8" patternTransform="rotate(30)">
      <line x1="0" y1="0" x2="0" y2="8" stroke="#B5D4F4" stroke-width="0.6"/>
    </pattern>
  </defs>
  <rect x="0" y="0" width="680" height="420" fill="#faf9f7"/>
  <rect x="0" y="378" width="680" height="42" fill="#f0ede8"/>
  <line x1="0" y1="378" x2="680" y2="378" stroke="#2C2C2A" stroke-width="0.8"/>
  <line x1="227" y1="378" x2="227" y2="420" stroke="#B4B2A9" stroke-width="0.5"/>
  <line x1="454" y1="378" x2="454" y2="420" stroke="#B4B2A9" stroke-width="0.5"/>
  <text x="113" y="390" text-anchor="middle" dominant-baseline="central" fill="#888780" font-size="8" font-family="monospace" letter-spacing="0.5">SITE</text>
  <text x="113" y="405" text-anchor="middle" dominant-baseline="central" fill="#2C2C2A" font-size="10" font-family="monospace">Seekers Spirits · Phnom Penh</text>
  <text x="340" y="390" text-anchor="middle" dominant-baseline="central" fill="#888780" font-size="8" font-family="monospace" letter-spacing="0.5">TITLE</text>
  <text x="340" y="405" text-anchor="middle" dominant-baseline="central" fill="#2C2C2A" font-size="10" font-family="monospace" letter-spacing="0.3">Cooling circuit schematic</text>
  <text x="567" y="390" text-anchor="middle" dominant-baseline="central" fill="#888780" font-size="8" font-family="monospace" letter-spacing="0.5">ISSUE</text>
  <text x="567" y="405" text-anchor="middle" dominant-baseline="central" fill="#2C2C2A" font-size="10" font-family="monospace">Initial issue · Jun 2023</text>
  <rect x="400" y="50" width="240" height="110" rx="2" fill="#ece9e3" stroke="#2C2C2A" stroke-width="1"/>
  <rect x="405" y="55" width="230" height="100" fill="none" stroke="#888780" stroke-width="0.3"/>
  <rect x="406" y="72" width="228" height="78" fill="url(#tw)" opacity="0.6"/>
  <line x1="406" y1="72" x2="634" y2="72" stroke="#378ADD" stroke-width="0.7" stroke-dasharray="5 3"/>
  <line x1="520" y1="45" x2="520" y2="53" stroke="#B4B2A9" stroke-width="0.4" stroke-dasharray="3 2"/>
  <line x1="520" y1="157" x2="520" y2="165" stroke="#B4B2A9" stroke-width="0.4" stroke-dasharray="3 2"/>
  <line x1="396" y1="105" x2="404" y2="105" stroke="#B4B2A9" stroke-width="0.4" stroke-dasharray="3 2"/>
  <line x1="636" y1="105" x2="644" y2="105" stroke="#B4B2A9" stroke-width="0.4" stroke-dasharray="3 2"/>
  <text x="520" y="100" text-anchor="middle" dominant-baseline="central" fill="#2C2C2A" font-size="11" font-family="monospace" letter-spacing="0.5">WATER RESERVOIR</text>
  <text x="520" y="116" text-anchor="middle" dominant-baseline="central" fill="#5F5E5A" font-size="9" font-family="monospace">300L design capacity</text>
  <rect x="442" y="128" width="156" height="17" rx="1" fill="#FCEBEB" stroke="#E24B4A" stroke-width="0.4"/>
  <text x="520" y="137" text-anchor="middle" dominant-baseline="central" fill="#791F1F" font-size="8.5" font-family="monospace">UNDERSIZED FOR 2000L LOAD</text>
  <rect x="383" y="58" width="18" height="7" fill="#ece9e3" stroke="#2C2C2A" stroke-width="0.8"/>
  <rect x="383" y="103" width="18" height="7" fill="#ece9e3" stroke="#2C2C2A" stroke-width="0.8"/>
  <rect x="62" y="278" width="10" height="54" rx="1" fill="#D3D1C7" stroke="#2C2C2A" stroke-width="0.7"/>
  <rect x="148" y="278" width="10" height="54" rx="1" fill="#D3D1C7" stroke="#2C2C2A" stroke-width="0.7"/>
  <rect x="56" y="326" width="24" height="6" rx="1" fill="#B4B2A9" stroke="#2C2C2A" stroke-width="0.6"/>
  <rect x="142" y="326" width="24" height="6" rx="1" fill="#B4B2A9" stroke="#2C2C2A" stroke-width="0.6"/>
  <rect x="60" y="274" width="100" height="7" rx="1" fill="#B4B2A9" stroke="#2C2C2A" stroke-width="0.6"/>
  <polygon points="54,276 166,276 158,190 62,190" fill="#D3D1C7" stroke="#2C2C2A" stroke-width="1"/>
  <polygon points="62,271 158,271 151,197 69,197" fill="none" stroke="#888780" stroke-width="0.3"/>
  <polygon points="54,276 62,276 69,197 62,190" fill="url(#th)" opacity="0.7"/>
  <polygon points="158,276 166,276 158,190 151,197" fill="url(#th)" opacity="0.7"/>
  <rect x="64" y="262" width="92" height="10" rx="1" fill="#888780" stroke="#2C2C2A" stroke-width="0.5"/>
  <line x1="74" y1="262" x2="74" y2="272" stroke="#2C2C2A" stroke-width="0.4"/>
  <line x1="84" y1="262" x2="84" y2="272" stroke="#2C2C2A" stroke-width="0.4"/>
  <line x1="94" y1="262" x2="94" y2="272" stroke="#2C2C2A" stroke-width="0.4"/>
  <line x1="104" y1="262" x2="104" y2="272" stroke="#2C2C2A" stroke-width="0.4"/>
  <line x1="114" y1="262" x2="114" y2="272" stroke="#2C2C2A" stroke-width="0.4"/>
  <line x1="124" y1="262" x2="124" y2="272" stroke="#2C2C2A" stroke-width="0.4"/>
  <line x1="134" y1="262" x2="134" y2="272" stroke="#2C2C2A" stroke-width="0.4"/>
  <line x1="144" y1="262" x2="144" y2="272" stroke="#2C2C2A" stroke-width="0.4"/>
  <rect x="82" y="222" width="54" height="38" rx="2" fill="#1A1A1A" stroke="#2C2C2A" stroke-width="0.7"/>
  <rect x="85" y="225" width="48" height="32" rx="1" fill="#042C53"/>
  <line x1="87" y1="231" x2="131" y2="231" stroke="#378ADD" stroke-width="0.5" opacity="0.7"/>
  <line x1="87" y1="237" x2="131" y2="237" stroke="#378ADD" stroke-width="0.5" opacity="0.4"/>
  <line x1="87" y1="243" x2="131" y2="243" stroke="#378ADD" stroke-width="0.5" opacity="0.7"/>
  <line x1="87" y1="249" x2="131" y2="249" stroke="#378ADD" stroke-width="0.5" opacity="0.3"/>
  <circle cx="92" cy="254" r="2" fill="#1D9E75"/>
  <circle cx="100" cy="254" r="2" fill="#EF9F27"/>
  <circle cx="108" cy="254" r="2" fill="#E24B4A"/>
  <rect x="96" y="183" width="28" height="9" rx="1" fill="#B4B2A9" stroke="#2C2C2A" stroke-width="0.6"/>
  <rect x="96" y="112" width="28" height="73" rx="1" fill="#D3D1C7" stroke="#2C2C2A" stroke-width="0.8"/>
  <rect x="100" y="115" width="20" height="69" fill="none" stroke="#888780" stroke-width="0.3"/>
  <line x1="96" y1="132" x2="124" y2="132" stroke="#888780" stroke-width="0.3" stroke-dasharray="2 2"/>
  <line x1="96" y1="152" x2="124" y2="152" stroke="#888780" stroke-width="0.3" stroke-dasharray="2 2"/>
  <line x1="96" y1="172" x2="124" y2="172" stroke="#888780" stroke-width="0.3" stroke-dasharray="2 2"/>
  <rect x="90" y="127" width="40" height="7" rx="1" fill="#B4B2A9" stroke="#2C2C2A" stroke-width="0.6"/>
  <circle cx="93" cy="131" r="1.2" fill="#2C2C2A"/>
  <circle cx="127" cy="131" r="1.2" fill="#2C2C2A"/>
  <rect x="90" y="147" width="40" height="7" rx="1" fill="#B4B2A9" stroke="#2C2C2A" stroke-width="0.6"/>
  <circle cx="93" cy="151" r="1.2" fill="#2C2C2A"/>
  <circle cx="127" cy="151" r="1.2" fill="#2C2C2A"/>
  <rect x="90" y="167" width="40" height="7" rx="1" fill="#B4B2A9" stroke="#2C2C2A" stroke-width="0.6"/>
  <circle cx="93" cy="171" r="1.2" fill="#2C2C2A"/>
  <circle cx="127" cy="171" r="1.2" fill="#2C2C2A"/>
  <rect x="84" y="58" width="56" height="56" rx="2" fill="#D3D1C7" stroke="#2C2C2A" stroke-width="0.9"/>
  <rect x="88" y="62" width="48" height="48" fill="none" stroke="#888780" stroke-width="0.3"/>
  <line x1="90" y1="68" x2="134" y2="68" stroke="#2C2C2A" stroke-width="0.5"/>
  <line x1="90" y1="74" x2="134" y2="74" stroke="#2C2C2A" stroke-width="0.5"/>
  <line x1="90" y1="80" x2="134" y2="80" stroke="#2C2C2A" stroke-width="0.5"/>
  <line x1="90" y1="86" x2="134" y2="86" stroke="#2C2C2A" stroke-width="0.5"/>
  <line x1="90" y1="92" x2="134" y2="92" stroke="#2C2C2A" stroke-width="0.5"/>
  <line x1="90" y1="98" x2="134" y2="98" stroke="#2C2C2A" stroke-width="0.5"/>
  <line x1="90" y1="104" x2="134" y2="104" stroke="#2C2C2A" stroke-width="0.5"/>
  <rect x="102" y="44" width="16" height="16" rx="1" fill="#D3D1C7" stroke="#2C2C2A" stroke-width="0.7"/>
  <rect x="140" y="63" width="16" height="7" fill="#D3D1C7" stroke="#2C2C2A" stroke-width="0.7"/>
  <rect x="140" y="104" width="16" height="7" fill="#D3D1C7" stroke="#2C2C2A" stroke-width="0.7"/>
  <line x1="156" y1="66" x2="156" y2="61" stroke="#C03820" stroke-width="2"/>
  <line x1="156" y1="61" x2="383" y2="61" stroke="#C03820" stroke-width="2" marker-end="url(#tr)"/>
  <circle cx="383" cy="61" r="3" fill="#C03820"/>
  <circle cx="156" cy="66" r="3" fill="#C03820"/>
  <line x1="383" y1="106" x2="166" y2="106" stroke="#1D9E75" stroke-width="2" marker-end="url(#tg)"/>
  <line x1="156" y1="106" x2="156" y2="108" stroke="#1D9E75" stroke-width="2"/>
  <circle cx="383" cy="106" r="3" fill="#1D9E75"/>
  <circle cx="156" cy="108" r="3" fill="#1D9E75"/>
  <line x1="140" y1="83" x2="230" y2="83" stroke="#888780" stroke-width="0.35" stroke-dasharray="3 2"/>
  <circle cx="140" cy="83" r="1.5" fill="#888780"/>
  <text x="234" y="81" dominant-baseline="central" fill="#444441" font-size="9" font-family="monospace">01  condenser head</text>
  <line x1="130" y1="150" x2="230" y2="150" stroke="#888780" stroke-width="0.35" stroke-dasharray="3 2"/>
  <circle cx="130" cy="150" r="1.5" fill="#888780"/>
  <text x="234" y="148" dominant-baseline="central" fill="#444441" font-size="9" font-family="monospace">02  rectification column</text>
  <line x1="166" y1="232" x2="230" y2="232" stroke="#888780" stroke-width="0.35" stroke-dasharray="3 2"/>
  <circle cx="166" cy="232" r="1.5" fill="#888780"/>
  <text x="234" y="230" dominant-baseline="central" fill="#444441" font-size="9" font-family="monospace">03  2000L pot / boiler</text>
  <line x1="54" y1="298" x2="230" y2="298" stroke="#888780" stroke-width="0.35" stroke-dasharray="3 2"/>
  <circle cx="54" cy="298" r="1.5" fill="#888780"/>
  <text x="234" y="296" dominant-baseline="central" fill="#444441" font-size="9" font-family="monospace">04  stainless frame / legs</text>
  <text x="110" y="348" text-anchor="middle" dominant-baseline="central" fill="#2C2C2A" font-size="10" font-family="monospace" letter-spacing="0.5">2000L STILL</text>
  <line x1="54" y1="358" x2="166" y2="358" stroke="#2C2C2A" stroke-width="0.5"/>
  <line x1="260" y1="330" x2="230" y2="330" stroke="#1D9E75" stroke-width="2" marker-end="url(#tg)"/>
  <text x="266" y="330" dominant-baseline="central" fill="#5F5E5A" font-size="9" font-family="monospace">Cold supply (reservoir to condenser)</text>
  <line x1="230" y1="346" x2="260" y2="346" stroke="#C03820" stroke-width="2" marker-end="url(#tr)"/>
  <text x="266" y="346" dominant-baseline="central" fill="#5F5E5A" font-size="9" font-family="monospace">Warm return (condenser to reservoir)</text>
</svg>

