<svg viewBox="0 0 700 420" xmlns="http://www.w3.org/2000/svg" role="img" style="width:100%;font-family:sans-serif;">
  <title>Coolant temperature divergence from baseline: Batch 50 vs control</title>
  <desc>Line chart showing coolant temperature over 12 run hours. Batches 48 and 49 end at hour 8 below 40°C. Batch 50 continues to hour 12, reaching 54°C.</desc>
  <line x1="60" y1="320" x2="660" y2="320" stroke="#e0e0e0" stroke-width="0.5"/>
  <line x1="60" y1="272" x2="660" y2="272" stroke="#e0e0e0" stroke-width="0.5"/>
  <line x1="60" y1="224" x2="660" y2="224" stroke="#e0e0e0" stroke-width="0.5"/>
  <line x1="60" y1="175" x2="660" y2="175" stroke="#e0e0e0" stroke-width="0.5"/>
  <line x1="60" y1="127" x2="660" y2="127" stroke="#e0e0e0" stroke-width="0.5"/>
  <line x1="60" y1="79"  x2="660" y2="79"  stroke="#e0e0e0" stroke-width="0.5"/>
  <line x1="60" y1="30"  x2="660" y2="30"  stroke="#e0e0e0" stroke-width="0.5"/>
  <text x="52" y="324" text-anchor="end" font-size="13" font-weight="500" fill="#555">30</text>
  <text x="52" y="276" text-anchor="end" font-size="13" font-weight="500" fill="#555">35</text>
  <text x="52" y="228" text-anchor="end" font-size="13" font-weight="500" fill="#555">40</text>
  <text x="52" y="179" text-anchor="end" font-size="13" font-weight="500" fill="#555">45</text>
  <text x="52" y="131" text-anchor="end" font-size="13" font-weight="500" fill="#555">50</text>
  <text x="52" y="83"  text-anchor="end" font-size="13" font-weight="500" fill="#555">55</text>
  <text x="14" y="180" text-anchor="middle" font-size="13" font-weight="500" fill="#555" transform="rotate(-90,14,180)">coolant temperature (°C)</text>
  <line x1="60" y1="320" x2="660" y2="320" stroke="#ccc" stroke-width="1"/>
  <text x="60"  y="338" text-anchor="middle" font-size="13" font-weight="500" fill="#555">1</text>
  <text x="115" y="338" text-anchor="middle" font-size="13" font-weight="500" fill="#555">2</text>
  <text x="169" y="338" text-anchor="middle" font-size="13" font-weight="500" fill="#555">3</text>
  <text x="224" y="338" text-anchor="middle" font-size="13" font-weight="500" fill="#555">4</text>
  <text x="278" y="338" text-anchor="middle" font-size="13" font-weight="500" fill="#555">5</text>
  <text x="333" y="338" text-anchor="middle" font-size="13" font-weight="500" fill="#555">6</text>
  <text x="387" y="338" text-anchor="middle" font-size="13" font-weight="500" fill="#555">7</text>
  <text x="442" y="338" text-anchor="middle" font-size="13" font-weight="500" fill="#555">8</text>
  <text x="496" y="338" text-anchor="middle" font-size="13" font-weight="500" fill="#555">9</text>
  <text x="551" y="338" text-anchor="middle" font-size="13" font-weight="500" fill="#555">10</text>
  <text x="605" y="338" text-anchor="middle" font-size="13" font-weight="500" fill="#555">11</text>
  <text x="660" y="338" text-anchor="middle" font-size="13" font-weight="500" fill="#555">12</text>
  <text x="360" y="360" text-anchor="middle" font-size="13" font-weight="500" fill="#555">run hour</text>
  <polyline points="60,291 115,281 169,267 224,252 278,241 333,233 387,223 442,214" fill="none" stroke="#4a90d9" stroke-width="2"/>
  <circle cx="60"  cy="291" r="3" fill="#4a90d9"/>
  <circle cx="115" cy="281" r="3" fill="#4a90d9"/>
  <circle cx="169" cy="267" r="3" fill="#4a90d9"/>
  <circle cx="224" cy="252" r="3" fill="#4a90d9"/>
  <circle cx="278" cy="241" r="3" fill="#4a90d9"/>
  <circle cx="333" cy="233" r="3" fill="#4a90d9"/>
  <circle cx="387" cy="223" r="3" fill="#4a90d9"/>
  <circle cx="442" cy="214" r="3" fill="#4a90d9"/>
  <polyline points="60,291 115,280 169,268 224,255 278,245 333,236 387,229 442,219" fill="none" stroke="#9b8ec4" stroke-width="2"/>
  <circle cx="60"  cy="291" r="3" fill="#9b8ec4"/>
  <circle cx="115" cy="280" r="3" fill="#9b8ec4"/>
  <circle cx="169" cy="268" r="3" fill="#9b8ec4"/>
  <circle cx="224" cy="255" r="3" fill="#9b8ec4"/>
  <circle cx="278" cy="245" r="3" fill="#9b8ec4"/>
  <circle cx="333" cy="236" r="3" fill="#9b8ec4"/>
  <circle cx="387" cy="229" r="3" fill="#9b8ec4"/>
  <circle cx="442" cy="219" r="3" fill="#9b8ec4"/>
  <polyline points="60,291 115,279 169,266 224,255 278,241 333,226 387,203 442,174 496,144 551,117 605,93 660,67" fill="none" stroke="#e8a030" stroke-width="2.5"/>
  <circle cx="60"  cy="291" r="3" fill="#e8a030"/>
  <circle cx="115" cy="279" r="3" fill="#e8a030"/>
  <circle cx="169" cy="266" r="3" fill="#e8a030"/>
  <circle cx="224" cy="255" r="3" fill="#e8a030"/>
  <circle cx="278" cy="241" r="3" fill="#e8a030"/>
  <circle cx="333" cy="226" r="3" fill="#e8a030"/>
  <circle cx="387" cy="203" r="3" fill="#e8a030"/>
  <circle cx="442" cy="174" r="3" fill="#e8a030"/>
  <circle cx="496" cy="144" r="3" fill="#e8a030"/>
  <circle cx="551" cy="117" r="3" fill="#e8a030"/>
  <circle cx="605" cy="93"  r="3" fill="#e8a030"/>
  <circle cx="660" cy="67"  r="3" fill="#e8a030"/>
  <line x1="60" y1="392" x2="86" y2="392" stroke="#4a90d9" stroke-width="2"/>
  <circle cx="73" cy="392" r="4" fill="#4a90d9"/>
  <text x="92" y="397" font-size="13" font-weight="500" fill="#555">Batch 48: Orange Liqueur (control)</text>
  <line x1="300" y1="392" x2="326" y2="392" stroke="#9b8ec4" stroke-width="2"/>
  <circle cx="313" cy="392" r="4" fill="#9b8ec4"/>
  <text x="332" y="397" font-size="13" font-weight="500" fill="#555">Batch 49: Orange Liqueur (control)</text>
  <line x1="60" y1="412" x2="86" y2="412" stroke="#e8a030" stroke-width="2.5"/>
  <circle cx="73" cy="412" r="4" fill="#e8a030"/>
  <text x="92" y="417" font-size="13" font-weight="500" fill="#555">Batch 50: Mekong Dry Gin (incident)</text>
</svg>
