<svg width="100%" viewBox="0 0 680 840" xmlns="http://www.w3.org/2000/svg" font-family="system-ui, sans-serif">
<defs>
  <marker id="arrow" viewBox="0 0 10 10" refX="8" refY="5" markerWidth="6" markerHeight="6" orient="auto-start-reverse">
    <path d="M2 1L8 5L2 9" fill="none" stroke="#888780" stroke-width="1.5" stroke-linecap="round" stroke-linejoin="round"/>
  </marker>
</defs>

<rect x="30" y="120" width="390" height="420" rx="8" fill="none" stroke="#E24B4A" stroke-width="1" stroke-dasharray="6 4" opacity="0.6"/>
<text x="38" y="114" font-size="12" fill="#E24B4A">System blind spots — no detection capability</text>

<rect x="100" y="40" width="220" height="56" rx="8" fill="#F1EFE8" stroke="#888780" stroke-width="0.5"/>
<text x="210" y="62" font-size="14" font-weight="500" text-anchor="middle" dominant-baseline="central" fill="#2C2C2A">Supplier A</text>
<text x="210" y="80" font-size="12" text-anchor="middle" dominant-baseline="central" fill="#5F5E5A">Lot PDI-JNP-220620 · 20 Jun 2022</text>
<line x1="322" y1="62" x2="430" y2="62" stroke="#B4B2A9" stroke-width="0.5" stroke-dasharray="3 2"/>
<text x="434" y="58" font-size="12" fill="#E24B4A">Contamination enters upstream</text>

<line x1="210" y1="96" x2="210" y2="128" stroke="#888780" stroke-width="1.5" marker-end="url(#arrow)"/>

<rect x="100" y="130" width="220" height="56" rx="8" fill="#F1EFE8" stroke="#888780" stroke-width="0.5"/>
<text x="210" y="152" font-size="14" font-weight="500" text-anchor="middle" dominant-baseline="central" fill="#2C2C2A">Ingredient receipt</text>
<text x="210" y="170" font-size="12" text-anchor="middle" dominant-baseline="central" fill="#5F5E5A">No formal quality gate</text>
<line x1="322" y1="152" x2="430" y2="152" stroke="#B4B2A9" stroke-width="0.5" stroke-dasharray="3 2"/>
<text x="434" y="148" font-size="12" fill="#444441">No defined standard for inspection</text>
<text x="434" y="163" font-size="12" fill="#444441">No flavour baseline for ingredients</text>

<line x1="210" y1="186" x2="210" y2="218" stroke="#888780" stroke-width="1.5" marker-end="url(#arrow)"/>

<rect x="100" y="220" width="220" height="56" rx="8" fill="#E1F5EE" stroke="#0F6E56" stroke-width="0.5"/>
<text x="210" y="242" font-size="14" font-weight="500" text-anchor="middle" dominant-baseline="central" fill="#085041">Production</text>
<text x="210" y="260" font-size="12" text-anchor="middle" dominant-baseline="central" fill="#0F6E56">Batches 19–22 · Jul–Aug 2022</text>

<line x1="210" y1="276" x2="210" y2="308" stroke="#888780" stroke-width="1.5" marker-end="url(#arrow)"/>

<rect x="100" y="310" width="220" height="56" rx="8" fill="#E6F1FB" stroke="#185FA5" stroke-width="0.5"/>
<text x="210" y="332" font-size="14" font-weight="500" text-anchor="middle" dominant-baseline="central" fill="#0C447C">QC assessment</text>
<text x="210" y="350" font-size="12" text-anchor="middle" dominant-baseline="central" fill="#185FA5">Sensory only — all 4 batches pass</text>
<line x1="322" y1="338" x2="430" y2="338" stroke="#B4B2A9" stroke-width="0.5" stroke-dasharray="3 2"/>
<text x="434" y="330" font-size="12" fill="#444441">No fixed reference batch</text>
<text x="434" y="345" font-size="12" fill="#444441">No cross-batch comparison</text>
<text x="434" y="360" font-size="12" fill="#444441">Single point of failure</text>

<line x1="210" y1="366" x2="210" y2="398" stroke="#888780" stroke-width="1.5" marker-end="url(#arrow)"/>

<rect x="100" y="400" width="220" height="56" rx="8" fill="#F1EFE8" stroke="#888780" stroke-width="0.5"/>
<text x="210" y="422" font-size="14" font-weight="500" text-anchor="middle" dominant-baseline="central" fill="#2C2C2A">Bottling output</text>
<text x="210" y="440" font-size="12" text-anchor="middle" dominant-baseline="central" fill="#5F5E5A">715 bottles filled</text>
<line x1="322" y1="425" x2="430" y2="425" stroke="#B4B2A9" stroke-width="0.5" stroke-dasharray="3 2"/>
<rect x="430" y="408" width="178" height="68" rx="6" fill="none" stroke="#E24B4A" stroke-width="1" stroke-dasharray="4 3" opacity="0.7"/>
<text x="438" y="424" font-size="12" fill="#E24B4A">Blast radius locked in</text>
<text x="438" y="439" font-size="12" fill="#444441">4 batches · 3 products</text>
<text x="438" y="454" font-size="12" fill="#444441">715 bottles filled</text>

<line x1="210" y1="456" x2="210" y2="488" stroke="#888780" stroke-width="1.5" marker-end="url(#arrow)"/>

<rect x="100" y="490" width="220" height="56" rx="8" fill="#F1EFE8" stroke="#888780" stroke-width="0.5"/>
<text x="210" y="512" font-size="14" font-weight="500" text-anchor="middle" dominant-baseline="central" fill="#2C2C2A">Release and distribution</text>
<text x="210" y="530" font-size="12" text-anchor="middle" dominant-baseline="central" fill="#5F5E5A">On-trade and off-trade accounts</text>
<line x1="322" y1="512" x2="430" y2="512" stroke="#B4B2A9" stroke-width="0.5" stroke-dasharray="3 2"/>
<text x="434" y="508" font-size="12" fill="#444441">15 Aug 2022</text>
<text x="434" y="523" font-size="12" fill="#444441">Detected outside formal QC</text>

<line x1="210" y1="546" x2="210" y2="578" stroke="#888780" stroke-width="1.5" marker-end="url(#arrow)"/>

<rect x="100" y="580" width="220" height="56" rx="8" fill="#E1F5EE" stroke="#0F6E56" stroke-width="0.5"/>
<text x="210" y="602" font-size="14" font-weight="500" text-anchor="middle" dominant-baseline="central" fill="#085041">Quarantine and recovery</text>
<text x="210" y="620" font-size="12" text-anchor="middle" dominant-baseline="central" fill="#0F6E56">15 Aug 2022 (same day)</text>
<line x1="322" y1="608" x2="430" y2="608" stroke="#B4B2A9" stroke-width="0.5" stroke-dasharray="3 2"/>
<text x="434" y="608" font-size="12" fill="#3B6D11">Contamination caught downstream</text>

</svg>
